<svg width="216" height="57" viewBox="0 0 216 57" fill="none" xmlns="http://www.w3.org/2000/svg">
<path d="M202.075 26.8873C202.075 29.9776 204.4 32.1522 207.636 32.1522C209.937 32.1522 211.738 31.0763 212.626 29.3366H215.999C215.019 32.9305 211.738 35.2195 207.636 35.2195C202.645 35.2195 198.885 31.6486 198.885 26.8873C198.885 22.0574 202.622 18.5094 207.636 18.5094C211.738 18.5094 214.997 20.7985 215.999 24.3923H212.626C211.76 22.6297 209.96 21.5767 207.636 21.5767C204.377 21.5767 202.075 23.7284 202.075 26.8873Z" fill="url(#paint0_linear_264_1205)"/>
<path d="M193.093 34.876H189.72L191.384 30.275H188.216L184.068 18.8297H187.441L190.472 27.2077H192.477L195.508 18.8297H198.858L193.093 34.876Z" fill="url(#paint1_linear_264_1205)"/>
<path d="M174.798 34.8759V21.8054H169.146V18.8525H183.595V21.8054H177.989V34.8759H174.798Z" fill="url(#paint2_linear_264_1205)"/>
<path d="M150.703 26.8873C150.703 22.0574 154.44 18.5094 159.454 18.5094C164.445 18.5094 168.182 21.8743 168.182 26.8873C168.182 31.8317 164.445 35.2195 159.454 35.2195C154.463 35.2195 150.703 31.6486 150.703 26.8873ZM153.894 26.8873C153.894 29.9776 156.218 32.1522 159.454 32.1522C162.758 32.1522 164.992 29.9776 164.992 26.8873C164.992 23.7284 162.758 21.5767 159.454 21.5767C156.195 21.5767 153.894 23.7284 153.894 26.8873Z" fill="url(#paint3_linear_264_1205)"/>
<path d="M134.719 34.8759V18.8525H142.877C146.296 18.8525 149.167 21.1187 149.167 24.5294C149.167 27.757 146.136 30.2063 142.877 30.2063H137.909V34.8759H134.719ZM145.976 24.5294C145.976 22.95 144.655 21.8054 142.877 21.8054H137.909V27.2076H142.877C144.632 27.2076 145.976 26.0402 145.976 24.5294Z" fill="url(#paint4_linear_264_1205)"/>
<path d="M120.284 28.3292V34.8759H117.094V18.8525H120.284V25.3992H122.107L128.329 18.8525H132.659L125.093 26.8642L133.251 34.8759H128.807L122.039 28.3292H120.284Z" fill="url(#paint5_linear_264_1205)"/>
<path d="M99.1113 34.8759V18.8525H102.302V25.3764H111.03V18.8525H114.22V34.8759H111.03V28.3292H102.302V34.8759H99.1113Z" fill="url(#paint6_linear_264_1205)"/>
<path d="M78.4375 34.8759L86.4364 18.8525H89.9915L98.036 34.8759H94.4809L92.5894 31.099H83.8613L81.9698 34.8759H78.4375ZM85.3197 28.169H91.1081L88.2139 22.4006L85.3197 28.169Z" fill="url(#paint7_linear_264_1205)"/>
<path d="M63.748 18.8525H76.7377V21.6452H66.9385V24.6667H72.385C75.4615 24.6667 78.2418 26.8185 78.2418 29.7485C78.2418 32.8387 75.5983 34.8759 72.385 34.8759H63.748V18.8525ZM75.0513 29.7485C75.0513 28.5124 73.9347 27.5052 72.385 27.5052H66.9385V32.0604H72.385C73.9575 32.0604 75.0513 31.0761 75.0513 29.7485Z" fill="url(#paint8_linear_264_1205)"/>
<path d="M204.811 44.1536C205.345 44.3513 205.607 44.8501 205.607 45.3489C205.607 46.2431 205.045 46.7795 203.948 46.7795H202.449V41.8289H203.836C204.82 41.8289 205.363 42.3465 205.363 43.1748C205.363 43.5324 205.167 43.9089 204.811 44.1536ZM203.161 42.4783V43.8995H203.808C204.351 43.8995 204.632 43.636 204.632 43.1936C204.632 42.7418 204.351 42.4783 203.808 42.4783H203.161ZM203.958 46.1207C204.576 46.1207 204.876 45.8478 204.876 45.3301C204.876 44.8313 204.576 44.5489 203.958 44.5489H203.161V46.1207H203.958Z" fill="#151515"/>
<path d="M199.712 46.8924C198.681 46.8924 198.016 46.243 198.016 45.0571V43.5418C198.016 42.3558 198.681 41.7064 199.712 41.7064C200.742 41.7064 201.398 42.3558 201.398 43.5418V45.0571C201.398 46.243 200.742 46.8924 199.712 46.8924ZM199.712 46.1771C200.302 46.1771 200.658 45.8289 200.658 45.0571V43.5418C200.658 42.77 200.302 42.4311 199.712 42.4311C199.121 42.4311 198.765 42.77 198.765 43.5418V45.0571C198.765 45.8289 199.121 46.1771 199.712 46.1771Z" fill="#151515"/>
<path d="M197.611 41.8193V42.5346H195.84V46.7794H195.1V41.8193H197.611Z" fill="#151515"/>
<path d="M190.402 46.836V46.1207C190.936 46.1207 191.04 45.4525 191.105 44.5677C191.171 43.7583 191.208 42.7701 191.227 41.8289H193.935V46.7795H193.204V42.5159H191.939C191.92 43.1748 191.873 44.1254 191.827 44.6901C191.724 46.1207 191.33 46.836 190.402 46.836Z" fill="#151515"/>
<path d="M188.21 46.8924C187.179 46.8924 186.514 46.243 186.514 45.0571V43.5418C186.514 42.3558 187.179 41.7064 188.21 41.7064C189.24 41.7064 189.896 42.3558 189.896 43.5418V45.0571C189.896 46.243 189.24 46.8924 188.21 46.8924ZM188.21 46.1771C188.8 46.1771 189.156 45.8289 189.156 45.0571V43.5418C189.156 42.77 188.8 42.4311 188.21 42.4311C187.619 42.4311 187.263 42.77 187.263 43.5418V45.0571C187.263 45.8289 187.619 46.1771 188.21 46.1771Z" fill="#151515"/>
<path d="M181.736 47.8713V46.0925H182.102C182.373 45.6407 182.505 44.9254 182.561 44.116C182.617 43.3442 182.645 42.5912 182.655 41.8289H185.372V46.0925H185.925V47.8713H185.213V46.7795H182.448V47.8713H181.736ZM182.926 46.0925H184.641V42.5159H183.357C183.348 43.0995 183.329 43.6736 183.282 44.2571C183.217 45.0477 183.104 45.6501 182.926 46.0925Z" fill="#151515"/>
<path d="M177.69 41.8289H179.124V46.7795H178.412V45.0383H177.765L176.763 46.7795H175.91L177.035 44.963C176.472 44.7936 176.079 44.2383 176.079 43.4195C176.079 42.45 176.725 41.8289 177.69 41.8289ZM178.412 44.3889V42.5159H177.709C177.138 42.5159 176.81 42.8548 176.81 43.4383C176.81 44.0501 177.1 44.3889 177.672 44.3889H178.412Z" fill="#151515"/>
<path d="M172.078 46.7795V41.8289H172.8V44.276C172.8 44.6524 172.8 45.0666 172.781 45.5183L172.8 45.5372C172.884 45.3113 173.099 44.7654 173.231 44.4642L174.486 41.8289H175.236V46.7795H174.524V44.5019C174.524 44.0124 174.533 43.4948 174.561 43.043L174.542 43.0336C174.477 43.2501 174.243 43.8713 174.065 44.2477L172.828 46.7795H172.078Z" fill="#151515"/>
<path d="M170.174 41.8289H170.914V46.7795H170.174V44.5771H168.553V46.7795H167.822V41.8289H168.553V43.8807H170.174V41.8289Z" fill="#151515"/>
<path d="M165.103 41.7064C166.096 41.7064 166.658 42.3464 166.658 43.4194V46.7795H166.049L165.993 46.3089C165.778 46.6477 165.422 46.9018 164.869 46.9018C163.969 46.9018 163.332 46.3183 163.332 45.3677C163.332 44.3888 163.997 43.8618 165.075 43.8618H165.918V43.4288C165.918 42.7794 165.646 42.4217 165.084 42.4217C164.606 42.4217 164.26 42.6853 164.222 43.1841H163.482C163.519 42.2806 164.147 41.7064 165.103 41.7064ZM165.918 45.3394V44.5206H165.066C164.428 44.5206 164.082 44.8218 164.082 45.3771C164.082 45.923 164.447 46.2147 165.009 46.2147C165.571 46.2147 165.918 45.8571 165.918 45.3394Z" fill="#151515"/>
<path d="M161.031 46.883C160.038 46.883 159.4 46.2336 159.4 45.0853V43.4947C159.4 42.3558 160.038 41.7064 161.031 41.7064C162.052 41.7064 162.661 42.3558 162.699 43.4947H161.949C161.93 42.77 161.602 42.4217 161.031 42.4217C160.478 42.4217 160.15 42.77 160.15 43.4947V45.0853C160.15 45.8194 160.478 46.1583 161.031 46.1583C161.612 46.1583 161.94 45.8194 161.968 45.0853H162.708C162.68 46.2336 162.043 46.883 161.031 46.883Z" fill="#151515"/>
<path d="M155.203 46.7795V41.8289H155.925V44.276C155.925 44.6524 155.925 45.0666 155.906 45.5183L155.925 45.5372C156.009 45.3113 156.224 44.7654 156.356 44.4642L157.611 41.8289H158.361V46.7795H157.649V44.5019C157.649 44.0124 157.658 43.4948 157.686 43.043L157.667 43.0336C157.602 43.2501 157.368 43.8713 157.19 44.2477L155.953 46.7795H155.203Z" fill="#151515"/>
<path d="M154.041 41.8289V46.7795H153.301V42.5159H151.68V46.7795H150.949V41.8289H154.041Z" fill="#151515"/>
<path d="M148.386 46.883C147.393 46.883 146.756 46.2336 146.756 45.0853V43.4947C146.756 42.3558 147.393 41.7064 148.386 41.7064C149.408 41.7064 150.017 42.3558 150.054 43.4947H149.305C149.286 42.77 148.958 42.4217 148.386 42.4217C147.833 42.4217 147.505 42.77 147.505 43.4947V45.0853C147.505 45.8194 147.833 46.1583 148.386 46.1583C148.967 46.1583 149.295 45.8194 149.323 45.0853H150.064C150.035 46.2336 149.398 46.883 148.386 46.883Z" fill="#151515"/>
<path d="M142.065 46.8924C141.034 46.8924 140.369 46.243 140.369 45.0571V43.5418C140.369 42.3558 141.034 41.7064 142.065 41.7064C143.096 41.7064 143.752 42.3558 143.752 43.5418V45.0571C143.752 46.243 143.096 46.8924 142.065 46.8924ZM142.065 46.1771C142.655 46.1771 143.012 45.8289 143.012 45.0571V43.5418C143.012 42.77 142.655 42.4311 142.065 42.4311C141.475 42.4311 141.119 42.77 141.119 43.5418V45.0571C141.119 45.8289 141.475 46.1771 142.065 46.1771Z" fill="#151515"/>
<path d="M137.896 41.7158C138.815 41.7158 139.452 42.3935 139.452 43.6264V45.01C139.452 46.2241 138.852 46.8924 137.896 46.8924C137.503 46.8924 137.119 46.723 136.856 46.4218V48.4736H136.135V41.8194H136.688L136.763 42.2805C137.006 41.9511 137.437 41.7158 137.896 41.7158ZM138.702 45.01V43.6264C138.702 42.77 138.355 42.4029 137.765 42.4029C137.25 42.4029 136.856 42.7982 136.856 43.6076V45.01C136.856 45.7253 137.203 46.1959 137.765 46.1959C138.384 46.1959 138.702 45.8383 138.702 45.01Z" fill="#151515"/>
<path d="M133.455 41.7064C134.457 41.7064 135.094 42.3558 135.094 43.5418V45.0477C135.094 46.2242 134.457 46.883 133.455 46.883C132.461 46.883 131.824 46.2242 131.824 45.0477V44.5959H131.018V46.7795H130.297V41.8288H131.018V43.8994H131.824V43.5418C131.824 42.3558 132.461 41.7064 133.455 41.7064ZM134.354 45.0477V43.5418C134.354 42.77 134.017 42.4311 133.455 42.4311C132.892 42.4311 132.555 42.77 132.555 43.5418V45.0477C132.555 45.81 132.892 46.1583 133.455 46.1583C134.017 46.1583 134.354 45.81 134.354 45.0477Z" fill="#151515"/>
<path d="M127.749 42.13C128.639 42.13 129.258 42.7794 129.258 43.9276V45.0477C129.258 46.2242 128.602 46.883 127.58 46.883C126.568 46.883 125.922 46.2242 125.922 45.0477V42.3559C125.922 41.0288 126.85 40.577 127.524 40.3699C127.965 40.2382 128.189 40.1629 128.414 39.777L128.977 40.2099C128.724 40.7182 128.293 40.9158 127.805 41.0476C127.29 41.1888 126.653 41.3864 126.653 42.3276V42.6382C126.906 42.3088 127.271 42.13 127.749 42.13ZM128.508 45.0477V44.0029C128.508 43.1935 128.161 42.8453 127.609 42.8453C127.121 42.8453 126.671 43.1276 126.671 43.9559V45.0477C126.671 45.81 127.009 46.1583 127.58 46.1583C128.161 46.1583 128.508 45.81 128.508 45.0477Z" fill="#151515"/>
<path d="M122.147 45.2453H122.878C122.803 46.29 122.176 46.883 121.126 46.883C120.123 46.883 119.486 46.2242 119.486 45.0665V43.5135C119.486 42.3653 120.133 41.7064 121.135 41.7064C122.157 41.7064 122.813 42.3653 122.813 43.5135V44.6147H120.236V45.0665C120.236 45.8194 120.573 46.1583 121.145 46.1583C121.773 46.1583 122.063 45.8759 122.147 45.2453ZM121.145 42.4123C120.573 42.4123 120.236 42.7606 120.236 43.5041V44.0029H122.082V43.5041C122.082 42.7606 121.735 42.4123 121.145 42.4123Z" fill="#151515"/>
<path d="M116.872 46.8924C115.841 46.8924 115.176 46.243 115.176 45.0571V43.5418C115.176 42.3558 115.841 41.7064 116.872 41.7064C117.902 41.7064 118.558 42.3558 118.558 43.5418V45.0571C118.558 46.243 117.902 46.8924 116.872 46.8924ZM116.872 46.1771C117.462 46.1771 117.818 45.8289 117.818 45.0571V43.5418C117.818 42.77 117.462 42.4311 116.872 42.4311C116.281 42.4311 115.925 42.77 115.925 43.5418V45.0571C115.925 45.8289 116.281 46.1771 116.872 46.1771Z" fill="#151515"/>
<path d="M113.395 41.8289H114.135V46.7795H113.395V44.5771H111.774V46.7795H111.043V41.8289H111.774V43.8807H113.395V41.8289Z" fill="#151515"/>
<path d="M108.719 43.5324C109.628 43.5324 110.34 44.1913 110.34 45.1419C110.34 46.1113 109.628 46.7795 108.719 46.7795H107.145V41.8289H107.875V43.5324H108.719ZM108.672 46.0925C109.206 46.0925 109.59 45.7254 109.59 45.1419C109.59 44.5771 109.206 44.2195 108.672 44.2195H107.875V46.0925H108.672Z" fill="#151515"/>
<path d="M102.447 46.836V46.1207C102.981 46.1207 103.084 45.4525 103.15 44.5677C103.216 43.7583 103.253 42.7701 103.272 41.8289H105.98V46.7795H105.249V42.5159H103.984C103.965 43.1748 103.918 44.1254 103.872 44.6901C103.768 46.1207 103.375 46.836 102.447 46.836Z" fill="#151515"/>
<path d="M100.281 41.7064C101.274 41.7064 101.836 42.3464 101.836 43.4194V46.7795H101.227L101.171 46.3089C100.955 46.6477 100.599 46.9018 100.046 46.9018C99.1469 46.9018 98.5098 46.3183 98.5098 45.3677C98.5098 44.3888 99.175 43.8618 100.253 43.8618H101.096V43.4288C101.096 42.7794 100.824 42.4217 100.262 42.4217C99.7841 42.4217 99.4374 42.6853 99.3999 43.1841H98.6597C98.6972 42.2806 99.325 41.7064 100.281 41.7064ZM101.096 45.3394V44.5206H100.243C99.6061 44.5206 99.2594 44.8218 99.2594 45.3771C99.2594 45.923 99.6248 46.2147 100.187 46.2147C100.749 46.2147 101.096 45.8571 101.096 45.3394Z" fill="#151515"/>
<path d="M96.1796 41.7158C97.0978 41.7158 97.735 42.3935 97.735 43.6264V45.01C97.735 46.2241 97.1353 46.8924 96.1796 46.8924C95.786 46.8924 95.4018 46.723 95.1395 46.4218V48.4736H94.418V41.8194H94.9708L95.0458 42.2805C95.2894 41.9511 95.7204 41.7158 96.1796 41.7158ZM96.9854 45.01V43.6264C96.9854 42.77 96.6387 42.4029 96.0484 42.4029C95.533 42.4029 95.1395 42.7982 95.1395 43.6076V45.01C95.1395 45.7253 95.4862 46.1959 96.0484 46.1959C96.6668 46.1959 96.9854 45.8383 96.9854 45.01Z" fill="#151515"/>
<path d="M92.7197 45.2453H93.4506C93.3756 46.29 92.7478 46.883 91.6984 46.883C90.6958 46.883 90.0586 46.2242 90.0586 45.0665V43.5135C90.0586 42.3653 90.7051 41.7064 91.7077 41.7064C92.7291 41.7064 93.385 42.3653 93.385 43.5135V44.6147H90.8082V45.0665C90.8082 45.8194 91.1455 46.1583 91.7171 46.1583C92.3449 46.1583 92.6354 45.8759 92.7197 45.2453ZM91.7171 42.4123C91.1455 42.4123 90.8082 42.7606 90.8082 43.5041V44.0029H92.6541V43.5041C92.6541 42.7606 92.3074 42.4123 91.7171 42.4123Z" fill="#151515"/>
<path d="M85.2812 47.8713V46.0925H85.6467C85.9184 45.6407 86.0496 44.9254 86.1058 44.116C86.162 43.3442 86.1902 42.5912 86.1995 41.8289H88.9169V46.0925H89.4697V47.8713H88.7576V46.7795H85.9934V47.8713H85.2812ZM86.4713 46.0925H88.186V42.5159H86.9023C86.8929 43.0995 86.8742 43.6736 86.8273 44.2571C86.7617 45.0477 86.6493 45.6501 86.4713 46.0925Z" fill="#151515"/>
<path d="M84.1631 45.2453H84.8939C84.819 46.29 84.1912 46.883 83.1417 46.883C82.1391 46.883 81.502 46.2242 81.502 45.0665V43.5135C81.502 42.3653 82.1485 41.7064 83.1511 41.7064C84.1724 41.7064 84.8284 42.3653 84.8284 43.5135V44.6147H82.2516V45.0665C82.2516 45.8194 82.5889 46.1583 83.1605 46.1583C83.7883 46.1583 84.0787 45.8759 84.1631 45.2453ZM83.1605 42.4123C82.5889 42.4123 82.2516 42.7606 82.2516 43.5041V44.0029H84.0975V43.5041C84.0975 42.7606 83.7508 42.4123 83.1605 42.4123Z" fill="#151515"/>
<path d="M78.7184 41.7534C79.7772 41.7534 80.5736 42.4593 80.5736 43.7017V44.9064C80.5736 46.1394 79.7772 46.8453 78.7184 46.8453H78.5028V48.4736H77.7813V46.8453H77.5658C76.507 46.8453 75.7012 46.1394 75.7012 44.9064V43.7017C75.7012 42.4593 76.4976 41.7534 77.5658 41.7534H77.7813V39.9934H78.5028V41.7534H78.7184ZM77.5658 46.13H77.7813V42.4688H77.5658C76.938 42.4688 76.4508 42.8641 76.4508 43.7017V44.9064C76.4508 45.7253 76.938 46.13 77.5658 46.13ZM79.8334 44.9064V43.7017C79.8334 42.8641 79.3462 42.4688 78.7184 42.4688H78.5028V46.13H78.7184C79.3368 46.13 79.8334 45.7253 79.8334 44.9064Z" fill="#151515"/>
<path d="M42.8062 44.2411C43.2939 44.7246 43.7402 45.302 44.1764 45.8342C45.669 47.6553 47.2034 49.7625 48.3521 51.8145C48.052 51.6359 47.7651 51.4228 47.4756 51.2267C47.0416 50.9122 46.58 50.6367 46.1453 50.3226C44.4767 49.1172 42.8534 47.8173 41.4043 46.3486C41.9312 45.7647 42.3581 44.9068 42.8062 44.2411Z" fill="#2DD9F5"/>
<path d="M13.1476 44.032C13.3081 44.2188 13.4364 44.454 13.5938 44.6497C13.97 45.1174 14.4518 45.5712 14.7548 46.0867C14.2888 46.5632 13.8096 47.0259 13.3173 47.4748C12.825 47.9238 12.3203 48.3582 11.8033 48.7782C11.2862 49.1981 10.7576 49.6029 10.2175 49.9926C9.6774 50.3822 9.12667 50.756 8.5653 51.1139C8.29353 51.2929 8.02267 51.4732 7.75274 51.6549L7.74722 51.6292L7.63672 51.7262L7.63743 51.7049C7.90121 51.3959 8.1645 50.8635 8.38975 50.5089C8.78292 49.8901 9.21398 49.284 9.63875 48.6865C10.7632 47.1048 12.0412 45.6255 13.1476 44.032Z" fill="#1084BD"/>
<path d="M42.6259 7.01575C43.0665 7.29534 43.4835 7.71767 43.8907 8.05294C44.5493 8.59515 45.2524 9.10412 45.8712 9.69128C46.0017 9.83225 46.1759 9.9272 46.3233 10.0514C46.9766 10.6018 47.6453 11.1241 48.3243 11.6418C48.4985 11.7748 48.6573 11.9453 48.8332 12.0688C50.3902 13.3035 51.9063 14.6352 53.537 15.7695C53.1687 16.4123 52.6587 17.0113 52.2158 17.6059C51.191 18.9813 50.1334 20.3218 49.1529 21.7296C49.1761 20.9292 49.1911 20.1286 49.1979 19.3279C49.5679 18.8506 49.9142 18.3521 50.2767 17.8686C50.7263 17.2688 51.1953 16.6789 51.6089 16.0533C51.1832 15.6382 50.6644 15.284 50.199 14.9128L47.1253 12.4781C45.6824 11.3374 44.3154 10.067 42.8104 9.01016C42.4085 9.47411 42.0498 9.99331 41.6712 10.4778C41.0004 11.3359 40.3146 12.1812 39.7068 13.0866C39.1747 13.0751 38.6294 12.971 38.1016 12.8982C38.5885 12.2216 39.1155 11.5756 39.6258 10.9167C40.6297 9.62019 41.6399 8.32607 42.6259 7.01575Z" fill="#082B6A"/>
<path d="M13.3673 6.96826C13.6765 7.45323 14.0398 7.89687 14.3919 8.35059L15.8711 10.268C16.5074 11.1023 17.0848 12.0259 17.7784 12.8112C17.2391 12.9118 16.684 12.9614 16.1381 13.0151C15.8116 12.433 15.3706 11.9444 14.9749 11.4112C14.3736 10.6007 13.7955 9.77162 13.1812 8.9712C11.217 10.613 9.23215 12.2292 7.22656 13.8198L5.21901 15.4359C4.95558 15.6487 4.65991 15.8388 4.41026 16.0663C4.72 16.4374 6.79295 19.0526 6.86033 19.2941C6.96072 19.6537 6.95485 21.1979 6.95429 21.6604C6.44376 20.8313 5.76461 20.0928 5.16669 19.3257C4.25324 18.154 3.37577 16.9516 2.45312 15.7869C3.45566 15.0536 4.40609 14.252 5.37808 13.4787C5.89286 13.0692 6.52266 12.6505 6.97981 12.1892C7.42006 11.8534 7.83034 11.4749 8.26154 11.1269C8.75419 10.7294 9.26952 10.3971 9.69649 9.92339C9.79844 9.81026 9.84708 9.76275 9.99449 9.71588C11.148 8.83144 12.2556 7.90418 13.3673 6.96826Z" fill="#082B6A"/>
<path d="M52.4215 3.74383C52.2062 3.20546 52.084 2.70195 52.3232 2.13979C52.5821 1.53189 53.1731 1.20856 53.7604 0.988547C54.3374 0.772303 55.0396 0.612374 55.6547 0.574097C55.934 1.63359 56.2317 3.1985 55.6413 4.21005C55.4632 4.51521 55.1864 4.70624 54.8473 4.79075C54.4928 4.8791 54.1231 4.85112 53.7626 4.83102C53.2079 5.51647 52.6289 6.47348 52.0995 7.22313C51.2983 8.34083 50.519 9.47363 49.7613 10.6215C49.4529 11.0845 49.0701 11.5666 48.8331 12.0687C48.6571 11.9453 48.4984 11.7747 48.3241 11.6418C47.6452 11.124 46.9765 10.6017 46.3232 10.0513C46.1758 9.92714 46.0015 9.83219 45.8711 9.69122C47.3266 8.43618 48.7653 7.16191 50.187 5.86842C50.9331 5.19483 51.7881 4.52416 52.4215 3.74383Z" fill="#1084BD"/>
<path d="M0.419774 0.5C1.14382 0.647216 1.86688 0.791948 2.56526 1.04029C3.01067 1.19866 3.47645 1.39431 3.68282 1.85627C3.93629 2.42354 3.72044 3.02647 3.52615 3.57109C3.79934 3.97922 4.26625 4.29162 4.61339 4.63847C5.75294 5.77721 6.89342 6.90857 8.07574 8.00293C8.70547 8.5859 9.3637 9.134 9.99378 9.71598C9.84637 9.76285 9.79773 9.81036 9.69578 9.92349C9.26882 10.3972 8.75348 10.7295 8.26084 11.127C7.82963 11.475 7.41936 11.8535 6.9791 12.1893C6.55059 11.5595 6.15601 10.9064 5.7405 10.2676C5.01864 9.15815 4.27098 8.0672 3.54149 6.96354C3.06957 6.24954 2.61828 5.52816 2.12826 4.82538C1.76733 4.89895 1.41149 4.94171 1.04993 4.8361C0.713819 4.73789 0.449115 4.52371 0.290038 4.20974C-0.249762 3.14415 0.0647146 1.57107 0.419774 0.5Z" fill="#2DD9F5"/>
<path d="M32.2465 16.4629L32.2223 16.4577C31.0204 16.1981 29.8274 15.9019 28.6435 15.5693C28.4269 15.5086 28.1923 15.4333 28.0048 15.3716C26.7558 15.716 25.3961 16.0906 24.0256 16.3844L32.2465 16.4629ZM32.2465 16.4629L32.2707 16.4678M32.2465 16.4629L32.2707 16.4678M32.2707 16.4678C33.5462 16.7246 34.8261 16.9575 36.1102 17.1665L36.1102 17.1665M32.2707 16.4678L36.1102 17.1665M36.1102 17.1665C37.3944 17.3755 38.682 17.5605 39.973 17.7214L39.9731 17.7214M36.1102 17.1665L39.9731 17.7214M39.9731 17.7214C41.2641 17.8823 42.5576 18.0191 43.8537 18.1318L43.8538 18.1318M39.9731 17.7214L43.8538 18.1318M43.8538 18.1318C44.1311 18.1559 44.4084 18.1789 44.6858 18.2007M43.8538 18.1318L44.6858 18.2007M43.074 32.0963L43.074 32.096C43.1631 31.7641 43.2486 31.4312 43.3306 31.0974L43.074 32.0963ZM43.074 32.0963C42.9849 32.4284 42.8922 32.7594 42.796 33.0895C42.6998 33.4196 42.6 33.7486 42.4968 34.0766L42.4967 34.0767M43.074 32.0963L42.4967 34.0767M47.7586 26.4969L44.2898 26.031C44.3355 25.6902 44.3777 25.3489 44.4161 25.0072L47.7586 26.4969ZM47.7586 26.4969L44.2898 26.031C44.244 26.3719 44.1945 26.7122 44.1415 27.0521L47.7586 26.4969ZM42.4967 34.0767C42.3949 34.4001 42.2897 34.7224 42.181 35.0436M42.4967 34.0767L42.181 35.0436M30.9388 50.7392L30.9388 50.7392C33.9246 48.5973 36.1493 46.2208 38.2506 43.0931C38.2507 43.0931 38.2507 43.093 38.2507 43.093L38.2522 43.0909C38.7501 42.3496 39.1479 41.7575 39.4923 41.1464L30.9388 50.7392ZM30.9388 50.7392C30.8738 50.7858 30.8109 50.831 30.7498 50.875C30.2749 51.2162 29.9066 51.4808 29.524 51.7206L31.3825 54.6864M30.9388 50.7392L32.979 53.5831C32.9167 53.6278 32.8545 53.6725 32.7922 53.7173C32.3292 54.0502 31.8657 54.3836 31.3825 54.6864M31.3825 54.6864C30.3155 55.3551 29.206 55.9213 28.0746 56.4694M31.3825 54.6864L29.5238 51.7207M28.0746 56.4694L29.5238 51.7207M28.0746 56.4694L28.023 56.328L28.63 53.0588C28.8201 53.0941 28.9353 53.1409 28.9496 53.1466C28.9554 53.149 28.9585 53.1503 28.9585 53.1503C28.9587 53.1503 28.9384 53.1413 28.8922 53.1172C28.8283 53.0839 28.7538 53.0425 28.639 52.9776C28.6284 52.9716 28.6171 52.9652 28.6051 52.9584C28.5092 52.9041 28.3679 52.8242 28.2325 52.7523C28.1435 52.7049 28.0547 52.657 27.9661 52.6086M28.0746 56.4694L29.5238 51.7207M28.0746 56.4694L28.0183 56.3532L27.991 56.4999M28.0746 56.4694L27.991 56.4999M29.5238 51.7207C29.0286 52.0311 28.5124 52.3217 27.9661 52.6086M27.9661 52.6086C27.5679 52.8177 27.1538 53.0249 26.7202 53.2362M27.9661 52.6086C27.7438 52.487 27.5232 52.3624 27.3042 52.2347M26.7202 53.2362L27.3042 52.2347M26.7202 53.2362L27.3042 52.2347M26.7202 53.2362L27.3042 52.2347M26.7199 53.2363C26.6632 53.264 26.6061 53.2917 26.5486 53.3196L26.6043 53.4346L25.5411 55.2582L26.6044 53.4347L27.2079 54.6804L26.591 55.8435L26.7199 53.2363ZM26.7199 53.2363L27.304 52.2346C26.9968 52.0555 26.6931 51.8704 26.3929 51.6795L26.3926 51.6793C26.0924 51.4884 25.796 51.2918 25.5034 51.0894L25.5031 51.0892C25.2104 50.8868 24.9217 50.6788 24.637 50.4653C24.3523 50.2517 24.0718 50.0328 23.7955 49.8084L26.7199 53.2363ZM27.991 56.4999L27.6893 55.6741L27.2091 54.6828L27.991 56.4999ZM14.5674 36.8309L14.5674 36.8309C15.5771 39.3518 16.7534 41.6981 18.218 43.8084L14.5674 36.8309ZM14.5674 36.8309C14.4767 36.6046 14.3991 36.416 14.33 36.2482M14.5674 36.8309L14.33 36.2482M13.3758 33.304L13.3758 33.304C13.43 33.4946 13.48 33.673 13.5274 33.8421C13.6925 34.4312 13.8259 34.907 13.9936 35.3871L13.3758 33.304ZM13.3758 33.304L13.3725 33.2926M13.3758 33.304L13.3725 33.2926M13.3725 33.2926C13.1178 32.4082 12.8879 31.5173 12.683 30.6199L12.683 30.6197M13.3725 33.2926L12.683 30.6197M12.683 30.6197C12.478 29.7224 12.2984 28.82 12.144 27.9124L12.1439 27.9122M12.683 30.6197L12.1439 27.9122M12.1439 27.9122C11.9895 27.0047 11.8606 26.0936 11.7572 25.1787L11.7572 25.1786M12.1439 27.9122L11.7572 25.1786M11.7572 25.1786C11.6537 24.2638 11.576 23.3467 11.5238 22.4274L11.5234 22.4188M11.7572 25.1786L11.5234 22.4188M11.5234 22.4188L11.5228 22.4102M11.5234 22.4188L11.5228 22.4102M11.5228 22.4102C11.4365 21.0099 11.4254 19.6159 11.4377 18.1689M11.5228 22.4102L11.4377 18.1689M44.6858 18.2007C44.6973 18.4152 44.7062 18.6287 44.7118 18.8432C44.7173 19.1818 44.7192 19.5204 44.7176 19.859C44.7159 20.203 44.7105 20.5468 44.7015 20.8906C44.6924 21.2345 44.6797 21.5782 44.6633 21.9217C44.6468 22.2653 44.6267 22.6086 44.603 22.9516L44.6858 18.2007ZM44.5206 23.9803C44.5517 23.6378 44.5791 23.2951 44.6029 22.952L44.5206 23.9803ZM44.5206 23.9803C44.4894 24.3228 44.4546 24.665 44.4162 25.0068L44.5206 23.9803ZM43.9713 28.0699C44.0317 27.7312 44.0884 27.392 44.1415 27.0521L43.9713 28.0699ZM43.9713 28.0699C43.911 28.4083 43.847 28.746 43.7795 29.0831C43.7119 29.4203 43.6407 29.7567 43.5659 30.0924L43.9713 28.0699ZM42.181 35.0436C41.672 36.5062 41.0668 37.9239 40.3717 39.3804L42.181 35.0436ZM40.2409 39.655C40.283 39.5665 40.3265 39.4751 40.3716 39.3805L40.2409 39.655ZM40.2409 39.655C39.9614 40.2422 39.7424 40.7024 39.4923 41.1463L40.2409 39.655ZM22.9791 49.1188C23.2467 49.3538 23.5187 49.5835 23.7951 49.808L22.9791 49.1188ZM22.9791 49.1188C22.7116 48.8838 22.4486 48.6437 22.1901 48.3985L19.781 50.9375M22.9791 49.1188L19.781 50.9375M19.781 50.9375L22.1901 48.3985C21.9333 48.1548 21.6813 47.9063 21.4339 47.653M19.781 50.9375L21.4339 47.653M21.4339 47.653C20.2369 46.4166 19.1389 45.1351 18.2181 43.8085L21.4339 47.653ZM14.33 36.2482C14.1965 35.9237 14.095 35.677 13.9937 35.3873L14.33 36.2482ZM11.4377 18.1689L15.873 17.6508C15.874 17.6507 15.8751 17.6506 15.8761 17.6505C17.6569 17.4453 19.4304 17.1891 21.1966 16.8816C21.3502 16.8564 21.5117 16.8306 21.6792 16.8037C22.3961 16.6889 23.2239 16.5562 24.0254 16.3844L11.4377 18.1689ZM43.5658 30.093C43.491 30.4285 43.4126 30.7631 43.3307 31.097L43.5658 30.093Z" stroke="#082B6A" stroke-width="7"/>
<path d="M27.8536 14.3998C27.9632 14.3811 28.045 14.3849 28.154 14.407C28.6187 14.5013 29.0781 14.669 29.5399 14.7843C30.5707 15.0371 31.6068 15.266 32.6481 15.4711C34.2306 15.7941 35.8205 16.0758 37.4175 16.3159C39.0147 16.5562 40.6169 16.7547 42.2243 16.9114C43.3652 17.0326 44.509 17.1763 45.6551 17.2375C45.7048 19.0781 45.7371 20.9351 45.6328 22.7748C45.6024 23.2505 45.565 23.7256 45.5208 24.2002C45.4765 24.6748 45.4254 25.1486 45.3673 25.6217C45.3093 26.0948 45.2443 26.5669 45.1726 27.0381C45.1008 27.5093 45.0222 27.9793 44.9368 28.4482C44.8513 28.9171 44.7591 29.3846 44.66 29.8508C44.561 30.3169 44.4552 30.7815 44.3426 31.2446C44.23 31.7077 44.1108 32.169 43.9848 32.6285C43.8588 33.0881 43.7262 33.5457 43.5869 34.0014C43.3982 34.6172 43.1957 35.2284 42.9793 35.835C42.7628 36.4416 42.5328 37.043 42.2891 37.639C42.0454 38.235 41.7883 38.8252 41.5178 39.4095C41.2473 39.9938 40.9637 40.5715 40.667 41.1428C40.3436 41.7559 40.0387 42.3865 39.6821 42.9805C39.5512 43.1954 39.4177 43.4085 39.2815 43.62C39.1453 43.8314 39.0064 44.0412 38.8649 44.2491C38.7235 44.457 38.5794 44.6632 38.4328 44.8675C38.2862 45.0718 38.137 45.2742 37.9853 45.4748C37.8335 45.6753 37.6793 45.8739 37.5227 46.0705C37.3659 46.2671 37.2068 46.4618 37.0453 46.6544C36.8837 46.847 36.7198 47.0375 36.5534 47.2259C36.3871 47.4144 36.2184 47.6008 36.0474 47.785C35.8764 47.9692 35.7031 48.1511 35.5275 48.331C35.3519 48.5108 35.1741 48.6883 34.9941 48.8637C34.814 49.039 34.6318 49.212 34.4475 49.3827C34.2631 49.5534 34.0766 49.7218 33.888 49.8878C33.6994 50.0538 33.5088 50.2173 33.3161 50.3785C33.1234 50.5397 32.9287 50.6984 32.7321 50.8547C32.5354 51.0109 32.3368 51.1646 32.1363 51.3158C31.9358 51.4671 31.7334 51.6157 31.5292 51.7618C30.4194 52.5397 29.2635 53.2009 28.0739 53.8451C28.041 53.8539 28.0293 53.8603 27.9948 53.8571C27.7515 53.8347 27.2143 53.4773 26.9791 53.3458C24.8872 52.1763 22.5975 50.5931 20.932 48.8553C20.1246 48.0127 19.3172 47.1509 18.5981 46.2308C13.6472 39.8957 11.1387 31.7645 10.4683 23.8126C10.2891 21.6873 10.2682 19.5615 10.3082 17.4304C12.7153 17.1624 15.1434 16.897 17.5352 16.5182C19.1992 16.2547 20.8544 15.9151 22.5073 15.5887C24.3034 15.234 26.0841 14.8737 27.8536 14.3998Z" fill="#FEFEFE"/>
<path d="M30.252 37.7892C30.5329 37.5437 30.8445 37.3343 31.1264 37.0857C31.0753 37.3952 30.8066 37.4494 30.6526 37.6826C30.5829 37.7882 30.6072 37.9251 30.5512 38.0378L30.252 37.7892Z" fill="#2DD9F5"/>
<path d="M31.1261 37.0857C31.4964 36.6585 31.968 36.3355 32.3291 35.8945C32.4661 36.0316 32.5888 36.1819 32.7142 36.3296C33.2136 36.8104 33.7421 37.2634 34.2559 37.7289C35.5343 38.8871 37.3037 40.4986 38.7982 41.3114C38.6162 41.6822 38.3267 42.021 38.0884 42.3598C37.8213 42.7397 37.5681 43.1331 37.2917 43.5058C35.7902 42.4578 34.3396 41.343 32.9398 40.1615C32.4992 39.79 32.0314 39.4297 31.6194 39.0274C31.2605 38.7102 30.8708 38.3947 30.5508 38.0383C30.6068 37.9255 30.5825 37.7885 30.6522 37.6829C30.8062 37.4496 31.0749 37.3954 31.1261 37.0857Z" fill="#2DD9F5"/>
<path d="M23.6752 35.838C24.3119 36.5456 25.0603 37.1167 25.7481 37.7661C25.0975 38.2928 24.5025 38.8997 23.8678 39.4482C22.3111 40.8147 20.6987 42.1113 19.0305 43.3378L18.685 43.5769C18.2101 42.8394 17.7131 42.1306 17.1953 41.423C17.7635 40.9775 18.3635 40.5712 18.9314 40.1233C19.7903 39.4459 20.5903 38.6946 21.4064 37.9671C22.1777 37.2795 22.9774 36.6024 23.6752 35.838Z" fill="#1084BD"/>
<path d="M43.5896 18.6042C43.5918 18.576 43.5918 18.576 43.5918 18.576C43.5911 18.5854 43.5911 18.5949 43.5896 18.6042C43.5342 18.9334 42.6527 20.2782 42.4275 20.6616C42.1567 21.1227 41.9201 21.606 41.6355 22.0583C41.4413 22.367 41.2222 22.6597 41.0206 22.9636C40.6443 23.5311 40.2898 24.1097 39.8962 24.6664C37.3258 28.3014 34.3104 31.4973 31.0735 34.5331C30.3509 35.2176 29.6138 35.886 28.8622 36.5382C28.5696 36.795 28.2925 37.088 27.9742 37.312C27.6389 36.9797 27.2649 36.6778 26.9172 36.3575C25.9072 35.4273 24.8807 34.5019 23.8996 33.5419C23.2904 32.9513 22.6927 32.3491 22.1065 31.7353C21.5204 31.1216 20.9462 30.4967 20.3839 29.8609C19.8216 29.2249 19.2717 28.5784 18.7342 27.9213C18.1967 27.2642 17.672 26.5969 17.1599 25.9195C16.3537 24.8661 15.5607 23.8088 14.831 22.6996C14.1119 21.6106 13.0374 20.0157 12.543 18.8284C13.3409 20.3133 17.0166 21.3202 18.0019 22.6833C18.7454 23.712 19.487 24.7537 20.2882 25.7377C21.6093 27.3599 23.0658 28.8867 24.534 30.3733C25.2517 31.1 26.0124 31.7878 26.7615 32.4814C27.1608 32.8511 27.5872 33.213 27.945 33.6236L27.9842 33.669C28.6253 33.0128 29.3224 32.4227 29.9845 31.7892C31.4709 30.3828 32.905 28.9245 34.2868 27.4142C34.8489 26.7935 35.3669 26.1462 35.8913 25.4941C37.0339 24.0731 38.1354 22.6151 39.1096 21.07C39.6815 20.163 43.0263 19.5136 43.5896 18.6042Z" fill="#082B6A"/>
<defs>
<linearGradient id="paint0_linear_264_1205" x1="207.736" y1="26.8645" x2="210.793" y2="54.8854" gradientUnits="userSpaceOnUse">
<stop stop-color="#0B4078"/>
<stop offset="1" stop-color="#07CDEB"/>
</linearGradient>
<linearGradient id="paint1_linear_264_1205" x1="191.718" y1="26.8529" x2="194.971" y2="53.6865" gradientUnits="userSpaceOnUse">
<stop stop-color="#0B4078"/>
<stop offset="1" stop-color="#07CDEB"/>
</linearGradient>
<linearGradient id="paint2_linear_264_1205" x1="176.619" y1="26.8642" x2="179.938" y2="53.6422" gradientUnits="userSpaceOnUse">
<stop stop-color="#0B4078"/>
<stop offset="1" stop-color="#07CDEB"/>
</linearGradient>
<linearGradient id="paint3_linear_264_1205" x1="159.743" y1="26.8645" x2="162.738" y2="54.899" gradientUnits="userSpaceOnUse">
<stop stop-color="#0B4078"/>
<stop offset="1" stop-color="#07CDEB"/>
</linearGradient>
<linearGradient id="paint4_linear_264_1205" x1="142.191" y1="26.8642" x2="145.51" y2="53.6422" gradientUnits="userSpaceOnUse">
<stop stop-color="#0B4078"/>
<stop offset="1" stop-color="#07CDEB"/>
</linearGradient>
<linearGradient id="paint5_linear_264_1205" x1="125.45" y1="26.8642" x2="128.427" y2="53.7236" gradientUnits="userSpaceOnUse">
<stop stop-color="#0B4078"/>
<stop offset="1" stop-color="#07CDEB"/>
</linearGradient>
<linearGradient id="paint6_linear_264_1205" x1="106.925" y1="26.8642" x2="110.103" y2="53.6769" gradientUnits="userSpaceOnUse">
<stop stop-color="#0B4078"/>
<stop offset="1" stop-color="#07CDEB"/>
</linearGradient>
<linearGradient id="paint7_linear_264_1205" x1="88.5735" y1="26.8642" x2="91.0371" y2="53.8284" gradientUnits="userSpaceOnUse">
<stop stop-color="#0B4078"/>
<stop offset="1" stop-color="#07CDEB"/>
</linearGradient>
<linearGradient id="paint8_linear_264_1205" x1="71.244" y1="26.8642" x2="74.5525" y2="53.6448" gradientUnits="userSpaceOnUse">
<stop stop-color="#0B4078"/>
<stop offset="1" stop-color="#07CDEB"/>
</linearGradient>
</defs>
</svg>
