<svg width="218" height="133" viewBox="0 0 218 133" fill="none" xmlns="http://www.w3.org/2000/svg">
<path d="M130.214 62.6301C130.913 63.3225 131.552 64.1492 132.176 64.9112C134.313 67.5188 136.51 70.5358 138.155 73.474C137.725 73.2183 137.315 72.9132 136.9 72.6325C136.279 72.1821 135.618 71.7876 134.995 71.3379C132.606 69.6119 130.282 67.7507 128.207 65.6478C128.961 64.8118 129.573 63.5833 130.214 62.6301Z" fill="#2DD9F5"/>
<path d="M87.7481 62.3308C87.9779 62.5982 88.1616 62.9351 88.3869 63.2153C88.9257 63.8849 89.6155 64.5347 90.0494 65.2728C89.3821 65.9551 88.696 66.6176 87.9911 67.2604C87.2862 67.9032 86.5636 68.5253 85.8232 69.1266C85.0829 69.7279 84.326 70.3075 83.5527 70.8654C82.7794 71.4233 81.9908 71.9585 81.187 72.471C80.7979 72.7273 80.41 72.9855 80.0235 73.2456L80.0156 73.2088L79.8574 73.3477L79.8584 73.3172C80.2361 72.8747 80.6131 72.1124 80.9356 71.6047C81.4986 70.7187 82.1158 69.8508 82.724 68.9953C84.3341 66.7306 86.1639 64.6125 87.7481 62.3308Z" fill="#1084BD"/>
<path d="M129.955 9.32947C130.586 9.7298 131.183 10.3345 131.766 10.8146C132.709 11.5909 133.715 12.3197 134.601 13.1604C134.788 13.3622 135.038 13.4982 135.249 13.676C136.184 14.4641 137.142 15.212 138.114 15.9533C138.363 16.1436 138.591 16.3879 138.843 16.5646C141.072 18.3326 143.243 20.2393 145.578 21.8634C145.05 22.7839 144.32 23.6416 143.686 24.4929C142.219 26.4623 140.704 28.3817 139.3 30.3973C139.334 29.2513 139.355 28.105 139.365 26.9585C139.895 26.2751 140.39 25.5613 140.909 24.869C141.553 24.0103 142.225 23.1656 142.817 22.2699C142.207 21.6754 141.465 21.1683 140.798 20.6368L136.397 17.1507C134.331 15.5173 132.374 13.6984 130.219 12.1852C129.643 12.8495 129.13 13.5929 128.588 14.2866C127.627 15.5153 126.645 16.7256 125.775 18.0219C125.013 18.0054 124.232 17.8565 123.477 17.7522C124.174 16.7834 124.928 15.8585 125.659 14.9151C127.097 13.0586 128.543 11.2056 129.955 9.32947Z" fill="#082B6A"/>
<path d="M88.0609 9.2616C88.5037 9.956 89.0239 10.5912 89.528 11.2409L91.646 13.9862C92.557 15.1808 93.3838 16.5033 94.377 17.6277C93.6047 17.7718 92.81 17.8428 92.0283 17.9197C91.5608 17.0863 90.9293 16.3867 90.3627 15.6231C89.5019 14.4627 88.6741 13.2756 87.7945 12.1295C84.9821 14.4804 82.1401 16.7945 79.2684 19.0719L76.3939 21.3859C76.0167 21.6906 75.5934 21.9628 75.2359 22.2885C75.6794 22.8199 78.6475 26.5644 78.744 26.9103C78.8878 27.4252 78.8794 29.6362 78.8785 30.2984C78.1475 29.1112 77.1751 28.0538 76.319 26.9555C75.0111 25.2778 73.7547 23.5562 72.4336 21.8885C73.8691 20.8385 75.2299 19.6907 76.6217 18.5835C77.3587 17.9972 78.2605 17.3976 78.9151 16.7372C79.5455 16.2563 80.1329 15.7144 80.7503 15.2161C81.4557 14.647 82.1936 14.1712 82.8049 13.4929C82.9509 13.3309 83.0206 13.2629 83.2316 13.1957C84.8832 11.9294 86.4692 10.6017 88.0609 9.2616Z" fill="#082B6A"/>
<path d="M143.981 4.64446C143.672 3.87359 143.497 3.15265 143.84 2.34772C144.211 1.47731 145.057 1.01434 145.898 0.699324C146.724 0.389696 147.729 0.160704 148.61 0.105896C149.01 1.62292 149.436 3.86362 148.591 5.31201C148.336 5.74894 147.94 6.02247 147.454 6.14348C146.947 6.26997 146.417 6.22991 145.901 6.20113C145.107 7.18259 144.278 8.55288 143.52 9.62625C142.373 11.2266 141.257 12.8486 140.172 14.4922C139.73 15.1551 139.182 15.8454 138.843 16.5643C138.591 16.3876 138.363 16.1434 138.114 15.953C137.142 15.2118 136.184 14.4639 135.249 13.6758C135.038 13.498 134.788 13.362 134.602 13.1602C136.686 11.3632 138.746 9.5386 140.781 7.68653C141.85 6.72206 143.074 5.76176 143.981 4.64446Z" fill="#1084BD"/>
<path d="M69.5229 0C70.5596 0.210791 71.5949 0.418023 72.5949 0.773611C73.2327 1.00037 73.8996 1.28051 74.1951 1.94196C74.558 2.75421 74.249 3.61751 73.9708 4.39732C74.3619 4.9817 75.0305 5.429 75.5275 5.92563C77.1592 7.55613 78.7922 9.17605 80.4851 10.743C81.3867 11.5777 82.3292 12.3625 83.2314 13.1958C83.0203 13.2629 82.9507 13.331 82.8047 13.4929C82.1934 14.1713 81.4555 14.6471 80.7501 15.2162C80.1327 15.7144 79.5452 16.2564 78.9148 16.7373C78.3013 15.8354 77.7363 14.9002 77.1414 13.9857C76.1078 12.3971 75.0372 10.835 73.9927 9.25476C73.317 8.23243 72.6708 7.19952 71.9692 6.19326C71.4524 6.2986 70.9429 6.35982 70.4252 6.20861C69.9439 6.06799 69.5649 5.76131 69.3372 5.31176C68.5643 3.786 69.0145 1.5336 69.5229 0Z" fill="#2DD9F5"/>
<path d="M115.402 21.3767L115.378 21.3714C113.687 21.0062 112.009 20.5896 110.343 20.1217C109.979 20.0195 109.584 19.8886 109.296 19.7928C109.218 19.7672 109.149 19.7441 109.089 19.7247C109.079 19.7214 109.069 19.7182 109.059 19.715C108.912 19.7557 108.763 19.7967 108.613 19.8378C106.824 20.3311 104.926 20.8542 103.006 21.2659L115.402 21.3767ZM115.402 21.3767L115.426 21.3815M115.402 21.3767L115.426 21.3815M115.426 21.3815C117.234 21.7455 119.048 22.0756 120.868 22.3718L121.43 18.919M115.426 21.3815L121.43 18.919M121.43 18.919L120.868 22.3718C122.689 22.6681 124.514 22.9303 126.344 23.1584L126.344 23.1584M121.43 18.919L126.344 23.1584M126.344 23.1584C128.174 23.3865 130.007 23.5804 131.844 23.74L131.844 23.7401M126.344 23.1584L131.844 23.7401M131.844 23.7401C132.67 23.8118 133.496 23.8766 134.323 23.9345M131.844 23.7401L134.323 23.9345M132.056 45.6325L132.057 45.6322C132.187 45.1464 132.312 44.6592 132.432 44.1707C132.552 43.6818 132.667 43.1917 132.776 42.7004C132.886 42.2093 132.99 41.717 133.089 41.2235C133.188 40.7303 133.281 40.236 133.37 39.7407C133.458 39.2452 133.541 38.7488 133.618 38.2516L132.056 45.6325ZM132.056 45.6325C131.926 46.1184 131.791 46.6028 131.65 47.0858L135.01 48.0653M132.056 45.6325L135.01 48.0653M135.01 48.0653L131.65 47.0858C131.509 47.5689 131.363 48.0503 131.212 48.5302L131.212 48.5303M135.01 48.0653L131.212 48.5303M131.212 48.5303C131.062 49.0056 130.908 49.4793 130.748 49.9514M131.212 48.5303L130.748 49.9514M114.102 73.1626L114.102 73.1626C118.539 69.9795 121.847 66.4407 124.945 61.8292L124.968 61.7951C125.665 60.7579 126.263 59.8679 126.785 58.941C127.171 58.2567 127.508 57.5465 127.906 56.71C127.967 56.5836 128.028 56.4542 128.091 56.3216L114.102 73.1626ZM114.102 73.1626C114.01 73.2289 113.919 73.2938 113.831 73.3573M114.102 73.1626L113.831 73.3573M105.901 74.5559L105.901 74.5561C106.347 74.84 106.799 75.115 107.255 75.3814L105.901 74.5559ZM105.901 74.5559C105.454 74.2722 105.014 73.9799 104.579 73.679L104.578 73.6788M105.901 74.5559L104.578 73.6788M104.578 73.6788C104.143 73.3779 103.714 73.0688 103.291 72.7513M104.578 73.6788L103.291 72.7513M85.1276 53.8834L88.3767 52.582C89.8518 56.2647 91.586 59.7324 93.7653 62.8724L85.1276 53.8834ZM85.1276 53.8834L88.3767 52.582C88.2607 52.2925 88.1557 52.0372 88.0587 51.8013C87.857 51.3109 87.69 50.9049 87.5315 50.4515L85.1276 53.8834ZM86.6198 47.3835L86.6198 47.3835C86.6928 47.6402 86.7616 47.8856 86.8279 48.1222C87.0671 48.9762 87.2741 49.715 87.5315 50.4514L86.6198 47.3835ZM86.6198 47.3835L86.6166 47.3721M86.6198 47.3835L86.6166 47.3721M86.6166 47.3721C86.2439 46.0786 85.9078 44.7757 85.6081 43.4632L85.6081 43.4631M86.6166 47.3721L85.6081 43.4631M97.2807 72.1806L99.654 69.6794C100.038 70.0438 100.429 70.4007 100.827 70.75C101.225 71.0992 101.629 71.4407 102.04 71.7744L97.2807 72.1806ZM97.2807 72.1806L99.654 69.6793C99.2714 69.3164 98.8959 68.9461 98.5275 68.5686M97.2807 72.1806L98.5275 68.5686M85.6081 43.4631C85.3084 42.1507 85.0456 40.8309 84.8198 39.5036L84.8198 39.5034M85.6081 43.4631L84.8198 39.5034M84.8198 39.5034C84.5939 38.1762 84.4054 36.8436 84.2541 35.5056L84.2541 35.5056M84.8198 39.5034L84.2541 35.5056M84.2541 35.5056C84.1028 34.1676 83.9891 32.8265 83.9129 31.482L83.9124 31.4734M84.2541 35.5056L83.9124 31.4734M83.9124 31.4734L83.9119 31.4649M83.9124 31.4734L83.9119 31.4649M83.9119 31.4649C83.7591 28.9855 83.7675 26.5173 83.8022 23.952M83.9119 31.4649L83.8022 23.952M134.323 23.9345C134.385 24.7112 134.433 25.4684 134.453 26.2324C134.461 26.7303 134.464 27.2283 134.461 27.7262C134.459 28.2295 134.451 28.7328 134.438 29.2359C134.425 29.739 134.406 30.2419 134.382 30.7446C134.358 31.2474 134.329 31.7499 134.294 32.2521C134.259 32.7541 134.219 33.2557 134.173 33.7568L134.323 23.9345ZM134.02 35.2592C134.077 34.7591 134.128 34.2584 134.173 33.7572L134.02 35.2592ZM134.02 35.2592C133.964 35.7593 133.902 36.2587 133.835 36.7574C133.768 37.2562 133.696 37.7543 133.618 38.2515L134.02 35.2592ZM130.748 49.9514C129.996 52.1132 129.105 54.1977 128.091 56.3214L130.748 49.9514ZM113.831 73.3573C113.157 73.8417 112.589 74.2501 111.998 74.6204L113.831 73.3573ZM103.291 72.7513C102.868 72.4339 102.451 72.1084 102.04 71.7748L103.291 72.7513ZM98.5275 68.5686C96.7733 66.7569 95.1433 64.8579 93.7653 62.8725L98.5275 68.5686ZM83.8022 23.952L91.4763 23.0556C91.4773 23.0555 91.4783 23.0554 91.4793 23.0553C94.0033 22.7646 96.5168 22.4013 99.0199 21.9654C99.2529 21.9273 99.4942 21.8886 99.7419 21.8489C100.766 21.6846 101.901 21.5028 103.005 21.266L83.8022 23.952ZM111.998 74.6206C111.03 75.2268 110.019 75.7777 108.946 76.321C108.847 76.2654 108.74 76.2062 108.636 76.151L108.4 76.5944C108.135 76.7258 107.867 76.8573 107.594 76.9894L107.879 77.5777L106.996 79.2426L107.881 77.5811L108.568 78.9999L109 80.1829L111.998 74.6206Z" stroke="#082B6A" stroke-width="7"/>
<path d="M108.803 19.9018C108.96 19.875 109.077 19.8804 109.233 19.9122C109.899 20.0471 110.556 20.2873 111.218 20.4524C112.694 20.8143 114.177 21.1421 115.668 21.4357C117.934 21.8983 120.21 22.3015 122.497 22.6454C124.784 22.9894 127.078 23.2736 129.38 23.498C131.013 23.6716 132.651 23.8773 134.292 23.9649C134.363 26.6004 134.409 29.2593 134.26 31.8935C134.217 32.5745 134.163 33.2549 134.1 33.9345C134.036 34.614 133.963 35.2924 133.88 35.9698C133.797 36.6472 133.704 37.3232 133.601 37.9979C133.498 38.6725 133.386 39.3455 133.263 40.0169C133.141 40.6882 133.009 41.3576 132.867 42.0251C132.725 42.6926 132.574 43.3578 132.413 44.0209C132.252 44.6839 132.081 45.3444 131.9 46.0024C131.72 46.6604 131.53 47.3157 131.331 47.9682C131.06 48.85 130.77 49.7251 130.461 50.5936C130.151 51.4622 129.821 52.3232 129.472 53.1766C129.123 54.0301 128.755 54.8751 128.368 55.7117C127.981 56.5483 127.575 57.3756 127.15 58.1936C126.687 59.0713 126.25 59.9743 125.74 60.8249C125.552 61.1325 125.361 61.4377 125.166 61.7404C124.971 62.0432 124.772 62.3435 124.57 62.6412C124.367 62.939 124.161 63.2341 123.951 63.5267C123.741 63.8192 123.527 64.1091 123.31 64.3962C123.093 64.6834 122.872 64.9677 122.648 65.2492C122.423 65.5308 122.195 65.8094 121.964 66.0853C121.733 66.361 121.498 66.6338 121.26 66.9036C121.022 67.1735 120.78 67.4403 120.535 67.7041C120.29 67.9678 120.042 68.2284 119.791 68.4858C119.539 68.7433 119.285 68.9975 119.027 69.2486C118.769 69.4996 118.508 69.7473 118.244 69.9918C117.98 70.2362 117.713 70.4773 117.443 70.7149C117.173 70.9526 116.9 71.1868 116.625 71.4176C116.349 71.6483 116.07 71.8756 115.788 72.0994C115.507 72.3231 115.222 72.5432 114.935 72.7597C114.648 72.9762 114.358 73.1891 114.066 73.3983C112.477 74.512 110.822 75.4588 109.119 76.3812C109.071 76.3938 109.055 76.4029 109.005 76.3984C108.657 76.3663 107.888 75.8546 107.551 75.6662C104.556 73.9918 101.277 71.7249 98.8925 69.2366C97.7363 68.0302 96.5804 66.7961 95.5507 65.4787C88.4618 56.4079 84.87 44.7653 83.91 33.3795C83.6535 30.3363 83.6235 27.2926 83.6808 24.2411C87.1274 23.8574 90.6041 23.4774 94.0288 22.935C96.4114 22.5577 98.7813 22.0715 101.148 21.6041C103.72 21.0963 106.269 20.5804 108.803 19.9018Z" fill="#FEFEFE"/>
<path d="M112.236 53.3921C112.639 53.0406 113.085 52.7408 113.488 52.3848C113.415 52.828 113.03 52.9055 112.81 53.2395C112.71 53.3906 112.745 53.5867 112.665 53.748L112.236 53.3921Z" fill="#2DD9F5"/>
<path d="M113.49 52.3844C114.02 51.7728 114.695 51.3102 115.212 50.6789C115.408 50.8751 115.584 51.0903 115.764 51.3019C116.479 51.9903 117.235 52.6389 117.971 53.3054C119.802 54.9637 122.335 57.2712 124.475 58.4349C124.214 58.9659 123.8 59.451 123.459 59.9362C123.076 60.4801 122.714 61.0433 122.318 61.5771C120.168 60.0764 118.091 58.4802 116.087 56.7885C115.456 56.2566 114.786 55.7407 114.196 55.1647C113.682 54.7105 113.124 54.2588 112.666 53.7484C112.746 53.587 112.711 53.3908 112.811 53.2396C113.032 52.9055 113.416 52.8279 113.49 52.3844Z" fill="#2DD9F5"/>
<path d="M102.821 50.5981C103.733 51.6113 104.804 52.429 105.789 53.3589C104.858 54.1131 104.006 54.9819 103.097 55.7674C100.868 57.724 98.5593 59.5805 96.1707 61.3367L95.676 61.679C94.9961 60.6231 94.2844 59.6082 93.543 58.595C94.3566 57.957 95.2156 57.3753 96.0288 56.734C97.2586 55.764 98.404 54.6884 99.5726 53.6466C100.677 52.6621 101.822 51.6927 102.821 50.5981Z" fill="#1084BD"/>
<path d="M131.333 25.922C131.336 25.8817 131.336 25.8817 131.336 25.8817C131.335 25.8951 131.335 25.9086 131.333 25.922C131.253 26.3934 129.991 28.319 129.669 28.8679C129.281 29.5281 128.942 30.2201 128.535 30.8678C128.257 31.3097 127.943 31.7288 127.654 32.1639C127.115 32.9765 126.608 33.805 126.044 34.6021C122.364 39.8069 118.046 44.3829 113.412 48.7297C112.377 49.7098 111.322 50.6668 110.245 51.6007C109.827 51.9684 109.43 52.3878 108.974 52.7086C108.494 52.2328 107.958 51.8005 107.461 51.3419C106.014 50.01 104.545 48.6849 103.14 47.3105C102.267 46.4647 101.412 45.6025 100.572 44.7237C99.7331 43.8449 98.9109 42.9503 98.1059 42.0398C97.3008 41.1292 96.5134 40.2035 95.7438 39.2627C94.9742 38.3218 94.2228 37.3664 93.4897 36.3964C92.3352 34.8881 91.1998 33.3742 90.155 31.786C89.1254 30.2268 87.5868 27.943 86.8789 26.243C88.0214 28.3692 93.2845 29.8109 94.6953 31.7627C95.7598 33.2356 96.8216 34.7272 97.9689 36.136C99.8604 38.4588 101.946 40.645 104.048 42.7735C105.076 43.814 106.165 44.7988 107.238 45.7919C107.809 46.3214 108.42 46.8396 108.932 47.4274L108.988 47.4925C109.906 46.5528 110.904 45.7079 111.852 44.8009C113.981 42.7872 116.034 40.699 118.013 38.5365C118.817 37.6478 119.559 36.7209 120.31 35.7872C121.946 33.7526 123.523 31.665 124.918 29.4526C125.737 28.1539 130.526 27.2241 131.333 25.922Z" fill="#082B6A"/>
<path d="M198.062 101.329C198.062 105.754 201.391 108.867 206.024 108.867C209.32 108.867 211.898 107.327 213.17 104.836H217.999C216.596 109.982 211.897 113.259 206.024 113.259C198.878 113.259 193.494 108.146 193.494 101.329C193.494 94.4134 198.845 89.3331 206.024 89.3331C211.897 89.3331 216.564 92.6107 217.999 97.7565H213.17C211.93 95.2327 209.352 93.7251 206.024 93.7251C201.358 93.7251 198.062 96.806 198.062 101.329Z" fill="url(#paint0_linear_264_2234)"/>
<path d="M185.201 112.767H180.372L182.754 106.18H178.218L172.279 89.7917H177.109L181.448 101.788H184.32L188.66 89.7917H193.456L185.201 112.767Z" fill="url(#paint1_linear_264_2234)"/>
<path d="M159.006 112.767V94.0524H150.914V89.8243H171.602V94.0524H163.575V112.767H159.006Z" fill="url(#paint2_linear_264_2234)"/>
<path d="M124.506 101.329C124.506 94.4134 129.857 89.3331 137.036 89.3331C144.182 89.3331 149.533 94.1512 149.533 101.329C149.533 108.409 144.182 113.259 137.036 113.259C129.89 113.259 124.506 108.146 124.506 101.329ZM129.074 101.329C129.074 105.754 132.402 108.867 137.036 108.867C141.767 108.867 144.965 105.754 144.965 101.329C144.965 96.806 141.767 93.7251 137.036 93.7251C132.37 93.7251 129.074 96.806 129.074 101.329Z" fill="url(#paint3_linear_264_2234)"/>
<path d="M101.619 112.767V89.8245H113.301C118.195 89.8245 122.307 93.0693 122.307 97.9529C122.307 102.574 117.967 106.081 113.301 106.081H106.187V112.767H101.619ZM117.738 97.9529C117.738 95.6914 115.846 94.0526 113.301 94.0526H106.187V101.788H113.301C115.813 101.788 117.738 100.116 117.738 97.9529Z" fill="url(#paint4_linear_264_2234)"/>
<path d="M80.9491 103.394V112.767H76.3809V89.8245H80.9491V99.1984H83.5595L92.4675 89.8245H98.6672L87.834 101.296L99.5156 112.767H93.1527L83.4616 103.394H80.9491Z" fill="url(#paint5_linear_264_2234)"/>
<path d="M50.6348 112.767V89.8245H55.203V99.1656H67.7003V89.8245H72.2685V112.767H67.7003V103.394H55.203V112.767H50.6348Z" fill="url(#paint6_linear_264_2234)"/>
<path d="M21.0352 112.767L32.4883 89.8245H37.5786L49.097 112.767H44.0067L41.2984 107.36H28.8011L26.0928 112.767H21.0352ZM30.8894 103.164H39.1775L35.0335 94.9048L30.8894 103.164Z" fill="url(#paint7_linear_264_2234)"/>
<path d="M0 89.8245H18.5991V93.8232H4.56821V98.1495H12.3668C16.7719 98.1495 20.7527 101.23 20.7527 105.426C20.7527 109.85 16.9676 112.767 12.3668 112.767H0V89.8245ZM16.1845 105.426C16.1845 103.656 14.5856 102.214 12.3668 102.214H4.56821V108.736H12.3668C14.6183 108.736 16.1845 107.327 16.1845 105.426Z" fill="url(#paint8_linear_264_2234)"/>
<path d="M200.859 125.931C201.624 126.214 202 126.928 202 127.642C202 128.923 201.195 129.691 199.625 129.691H197.479V122.602H199.464C200.873 122.602 201.651 123.343 201.651 124.529C201.651 125.042 201.369 125.581 200.859 125.931ZM198.498 123.532V125.567H199.424C200.202 125.567 200.605 125.19 200.605 124.556C200.605 123.91 200.202 123.532 199.424 123.532H198.498ZM199.639 128.748C200.524 128.748 200.953 128.357 200.953 127.616C200.953 126.901 200.524 126.497 199.639 126.497H198.498V128.748H199.639Z" fill="#151515"/>
<path d="M193.563 129.853C192.087 129.853 191.135 128.923 191.135 127.225V125.055C191.135 123.357 192.087 122.427 193.563 122.427C195.039 122.427 195.978 123.357 195.978 125.055V127.225C195.978 128.923 195.039 129.853 193.563 129.853ZM193.563 128.828C194.408 128.828 194.918 128.33 194.918 127.225V125.055C194.918 123.95 194.408 123.465 193.563 123.465C192.718 123.465 192.208 123.95 192.208 125.055V127.225C192.208 128.33 192.718 128.828 193.563 128.828Z" fill="#151515"/>
<path d="M190.553 122.589V123.613H188.017V129.691H186.957V122.589H190.553Z" fill="#151515"/>
<path d="M180.23 129.772V128.748C180.995 128.748 181.143 127.791 181.237 126.524C181.331 125.365 181.384 123.95 181.411 122.602H185.289V129.691H184.242V123.586H182.431C182.404 124.529 182.337 125.891 182.27 126.699C182.122 128.748 181.559 129.772 180.23 129.772Z" fill="#151515"/>
<path d="M177.094 129.853C175.619 129.853 174.666 128.923 174.666 127.225V125.055C174.666 123.357 175.619 122.427 177.094 122.427C178.57 122.427 179.509 123.357 179.509 125.055V127.225C179.509 128.923 178.57 129.853 177.094 129.853ZM177.094 128.828C177.94 128.828 178.449 128.33 178.449 127.225V125.055C178.449 123.95 177.94 123.465 177.094 123.465C176.249 123.465 175.739 123.95 175.739 125.055V127.225C175.739 128.33 176.249 128.828 177.094 128.828Z" fill="#151515"/>
<path d="M167.826 131.254V128.707H168.349C168.738 128.06 168.926 127.036 169.007 125.877C169.087 124.772 169.128 123.694 169.141 122.602H173.032V128.707H173.823V131.254H172.804V129.691H168.846V131.254H167.826ZM169.53 128.707H171.985V123.586H170.147C170.134 124.422 170.107 125.244 170.04 126.079C169.946 127.211 169.785 128.074 169.53 128.707Z" fill="#151515"/>
<path d="M162.028 122.602H164.08V129.691H163.061V127.198H162.135L160.699 129.691H159.479L161.089 127.09C160.284 126.847 159.72 126.052 159.72 124.88C159.72 123.492 160.646 122.602 162.028 122.602ZM163.061 126.268V123.586H162.054C161.236 123.586 160.767 124.071 160.767 124.907C160.767 125.783 161.182 126.268 162.001 126.268H163.061Z" fill="#151515"/>
<path d="M153.996 129.691V122.602H155.029V126.106C155.029 126.645 155.029 127.238 155.002 127.885L155.029 127.912C155.15 127.589 155.458 126.807 155.646 126.376L157.444 122.602H158.517V129.691H157.498V126.43C157.498 125.729 157.511 124.988 157.551 124.341L157.525 124.327C157.431 124.637 157.095 125.527 156.84 126.066L155.069 129.691H153.996Z" fill="#151515"/>
<path d="M151.268 122.602H152.328V129.691H151.268V126.537H148.947V129.691H147.9V122.602H148.947V125.54H151.268V122.602Z" fill="#151515"/>
<path d="M144.008 122.427C145.431 122.427 146.236 123.344 146.236 124.88V129.691H145.363L145.283 129.017C144.974 129.502 144.465 129.866 143.673 129.866C142.385 129.866 141.473 129.031 141.473 127.669C141.473 126.268 142.425 125.513 143.968 125.513H145.176V124.893C145.176 123.963 144.787 123.451 143.982 123.451C143.297 123.451 142.801 123.829 142.747 124.543H141.687C141.741 123.249 142.64 122.427 144.008 122.427ZM145.176 127.629V126.457H143.955C143.042 126.457 142.546 126.888 142.546 127.683C142.546 128.465 143.069 128.882 143.874 128.882C144.679 128.882 145.176 128.37 145.176 127.629Z" fill="#151515"/>
<path d="M138.176 129.839C136.754 129.839 135.842 128.909 135.842 127.265V124.988C135.842 123.357 136.754 122.427 138.176 122.427C139.639 122.427 140.511 123.357 140.564 124.988H139.491C139.464 123.95 138.995 123.451 138.176 123.451C137.385 123.451 136.915 123.95 136.915 124.988V127.265C136.915 128.316 137.385 128.801 138.176 128.801C139.008 128.801 139.478 128.316 139.518 127.265H140.578C140.538 128.909 139.625 129.839 138.176 129.839Z" fill="#151515"/>
<path d="M129.836 129.691V122.602H130.869V126.106C130.869 126.645 130.869 127.238 130.842 127.885L130.869 127.912C130.99 127.589 131.298 126.807 131.486 126.376L133.284 122.602H134.357V129.691H133.338V126.43C133.338 125.729 133.351 124.988 133.391 124.341L133.364 124.327C133.271 124.637 132.935 125.527 132.68 126.066L130.909 129.691H129.836Z" fill="#151515"/>
<path d="M128.166 122.602V129.691H127.106V123.586H124.785V129.691H123.738V122.602H128.166Z" fill="#151515"/>
<path d="M120.071 129.839C118.649 129.839 117.736 128.909 117.736 127.265V124.988C117.736 123.357 118.649 122.427 120.071 122.427C121.533 122.427 122.405 123.357 122.459 124.988H121.386C121.359 123.95 120.889 123.451 120.071 123.451C119.279 123.451 118.81 123.95 118.81 124.988V127.265C118.81 128.316 119.279 128.801 120.071 128.801C120.903 128.801 121.372 128.316 121.412 127.265H122.472C122.432 128.909 121.52 129.839 120.071 129.839Z" fill="#151515"/>
<path d="M111.018 129.853C109.542 129.853 108.59 128.923 108.59 127.225V125.055C108.59 123.357 109.542 122.427 111.018 122.427C112.494 122.427 113.433 123.357 113.433 125.055V127.225C113.433 128.923 112.494 129.853 111.018 129.853ZM111.018 128.828C111.863 128.828 112.373 128.33 112.373 127.225V125.055C112.373 123.95 111.863 123.465 111.018 123.465C110.173 123.465 109.663 123.95 109.663 125.055V127.225C109.663 128.33 110.173 128.828 111.018 128.828Z" fill="#151515"/>
<path d="M105.05 122.44C106.364 122.44 107.277 123.411 107.277 125.176V127.157C107.277 128.896 106.418 129.852 105.05 129.852C104.486 129.852 103.936 129.61 103.56 129.179V132.117H102.527V122.589H103.319L103.426 123.249C103.775 122.777 104.392 122.44 105.05 122.44ZM106.203 127.157V125.176C106.203 123.95 105.707 123.424 104.862 123.424C104.124 123.424 103.56 123.99 103.56 125.149V127.157C103.56 128.181 104.057 128.855 104.862 128.855C105.747 128.855 106.203 128.343 106.203 127.157Z" fill="#151515"/>
<path d="M98.6894 122.427C100.125 122.427 101.037 123.357 101.037 125.055V127.211C101.037 128.896 100.125 129.839 98.6894 129.839C97.2672 129.839 96.3549 128.896 96.3549 127.211V126.564H95.201V129.691H94.168V122.602H95.201V125.567H96.3549V125.055C96.3549 123.357 97.2672 122.427 98.6894 122.427ZM99.9773 127.211V125.055C99.9773 123.95 99.4943 123.465 98.6894 123.465C97.8844 123.465 97.4014 123.95 97.4014 125.055V127.211C97.4014 128.303 97.8844 128.801 98.6894 128.801C99.4943 128.801 99.9773 128.303 99.9773 127.211Z" fill="#151515"/>
<path d="M90.5225 123.033C91.7971 123.033 92.6825 123.963 92.6825 125.607V127.211C92.6825 128.896 91.7434 129.839 90.281 129.839C88.832 129.839 87.9062 128.896 87.9062 127.211V123.357C87.9062 121.457 89.2345 120.81 90.2005 120.513C90.8311 120.325 91.1531 120.217 91.4751 119.664L92.2801 120.284C91.9178 121.012 91.3006 121.295 90.603 121.484C89.8651 121.686 88.9527 121.969 88.9527 123.316V123.761C89.315 123.289 89.8382 123.033 90.5225 123.033ZM91.6092 127.211V125.715C91.6092 124.556 91.1128 124.058 90.3212 124.058C89.6236 124.058 88.9796 124.462 88.9796 125.648V127.211C88.9796 128.303 89.4626 128.801 90.281 128.801C91.1128 128.801 91.6092 128.303 91.6092 127.211Z" fill="#151515"/>
<path d="M82.5017 127.494H83.5482C83.4409 128.99 82.542 129.839 81.0393 129.839C79.6037 129.839 78.6914 128.896 78.6914 127.238V125.015C78.6914 123.37 79.6171 122.427 81.0527 122.427C82.5151 122.427 83.4543 123.37 83.4543 125.015V126.591H79.7647V127.238C79.7647 128.316 80.2477 128.801 81.0661 128.801C81.965 128.801 82.381 128.397 82.5017 127.494ZM81.0661 123.438C80.2477 123.438 79.7647 123.936 79.7647 125.001V125.715H82.4078V125.001C82.4078 123.936 81.9114 123.438 81.0661 123.438Z" fill="#151515"/>
<path d="M74.9479 129.853C73.4721 129.853 72.5195 128.923 72.5195 127.225V125.055C72.5195 123.357 73.4721 122.427 74.9479 122.427C76.4237 122.427 77.3629 123.357 77.3629 125.055V127.225C77.3629 128.923 76.4237 129.853 74.9479 129.853ZM74.9479 128.828C75.7932 128.828 76.303 128.33 76.303 127.225V125.055C76.303 123.95 75.7932 123.465 74.9479 123.465C74.1027 123.465 73.5929 123.95 73.5929 125.055V127.225C73.5929 128.33 74.1027 128.828 74.9479 128.828Z" fill="#151515"/>
<path d="M69.9691 122.602H71.029V129.691H69.9691V126.537H67.6481V129.691H66.6016V122.602H67.6481V125.54H69.9691V122.602Z" fill="#151515"/>
<path d="M63.2755 125.042C64.5769 125.042 65.5965 125.985 65.5965 127.346C65.5965 128.734 64.5769 129.691 63.2755 129.691H61.0215V122.602H62.068V125.042H63.2755ZM63.2084 128.707C63.9731 128.707 64.5232 128.182 64.5232 127.346C64.5232 126.537 63.9731 126.025 63.2084 126.025H62.068V128.707H63.2084Z" fill="#151515"/>
<path d="M54.293 129.772V128.748C55.0577 128.748 55.2053 127.791 55.2992 126.524C55.3931 125.365 55.4468 123.95 55.4736 122.602H59.351V129.691H58.3045V123.586H56.4933C56.4665 124.529 56.3994 125.891 56.3323 126.699C56.1847 128.748 55.6212 129.772 54.293 129.772Z" fill="#151515"/>
<path d="M51.192 122.427C52.6141 122.427 53.4191 123.344 53.4191 124.88V129.691H52.5471L52.4666 129.017C52.158 129.502 51.6481 129.866 50.8566 129.866C49.5686 129.866 48.6562 129.031 48.6562 127.669C48.6562 126.268 49.6088 125.513 51.1517 125.513H52.3592V124.893C52.3592 123.963 51.9701 123.451 51.1651 123.451C50.4809 123.451 49.9845 123.829 49.9308 124.543H48.8709C48.9246 123.249 49.8235 122.427 51.192 122.427ZM52.3592 127.629V126.457H51.1383C50.226 126.457 49.7296 126.888 49.7296 127.683C49.7296 128.465 50.2528 128.882 51.0578 128.882C51.8628 128.882 52.3592 128.37 52.3592 127.629Z" fill="#151515"/>
<path d="M45.3172 122.44C46.6321 122.44 47.5444 123.411 47.5444 125.176V127.157C47.5444 128.896 46.6857 129.852 45.3172 129.852C44.7537 129.852 44.2037 129.61 43.828 129.179V132.117H42.7949V122.589H43.5865L43.6938 123.249C44.0427 122.777 44.6598 122.44 45.3172 122.44ZM46.4711 127.157V125.176C46.4711 123.95 45.9746 123.424 45.1294 123.424C44.3915 123.424 43.828 123.99 43.828 125.149V127.157C43.828 128.181 44.3244 128.855 45.1294 128.855C46.0149 128.855 46.4711 128.343 46.4711 127.157Z" fill="#151515"/>
<path d="M40.365 127.494H41.4115C41.3042 128.99 40.4052 129.839 38.9026 129.839C37.467 129.839 36.5547 128.896 36.5547 127.238V125.015C36.5547 123.37 37.4804 122.427 38.916 122.427C40.3784 122.427 41.3176 123.37 41.3176 125.015V126.591H37.628V127.238C37.628 128.316 38.111 128.801 38.9294 128.801C39.8283 128.801 40.2442 128.397 40.365 127.494ZM38.9294 123.438C38.111 123.438 37.628 123.936 37.628 125.001V125.715H40.2711V125.001C40.2711 123.936 39.7747 123.438 38.9294 123.438Z" fill="#151515"/>
<path d="M29.7129 131.254V128.707H30.2361C30.6252 128.06 30.813 127.036 30.8935 125.877C30.974 124.772 31.0143 123.694 31.0277 122.602H34.9185V128.707H35.7101V131.254H34.6904V129.691H30.7326V131.254H29.7129ZM31.4168 128.707H33.872V123.586H32.034C32.0205 124.422 31.9937 125.244 31.9266 126.079C31.8327 127.211 31.6717 128.074 31.4168 128.707Z" fill="#151515"/>
<path d="M28.115 127.494H29.1615C29.0542 128.99 28.1552 129.839 26.6526 129.839C25.217 129.839 24.3047 128.896 24.3047 127.238V125.015C24.3047 123.37 25.2304 122.427 26.666 122.427C28.1284 122.427 29.0676 123.37 29.0676 125.015V126.591H25.378V127.238C25.378 128.316 25.861 128.801 26.6794 128.801C27.5783 128.801 27.9942 128.397 28.115 127.494ZM26.6794 123.438C25.861 123.438 25.378 123.936 25.378 125.001V125.715H28.0211V125.001C28.0211 123.936 27.5247 123.438 26.6794 123.438Z" fill="#151515"/>
<path d="M20.3182 122.494C21.8343 122.494 22.9747 123.505 22.9747 125.284V127.009C22.9747 128.774 21.8343 129.785 20.3182 129.785H20.0096V132.116H18.9765V129.785H18.6679C17.1519 129.785 15.998 128.774 15.998 127.009V125.284C15.998 123.505 17.1385 122.494 18.6679 122.494H18.9765V119.974H20.0096V122.494H20.3182ZM18.6679 128.761H18.9765V123.518H18.6679C17.769 123.518 17.0714 124.084 17.0714 125.284V127.009C17.0714 128.181 17.769 128.761 18.6679 128.761ZM21.9148 127.009V125.284C21.9148 124.084 21.2171 123.518 20.3182 123.518H20.0096V128.761H20.3182C21.2037 128.761 21.9148 128.181 21.9148 127.009Z" fill="#151515"/>
<defs>
<linearGradient id="paint0_linear_264_2234" x1="206.168" y1="101.296" x2="210.545" y2="141.418" gradientUnits="userSpaceOnUse">
<stop stop-color="#0B4078"/>
<stop offset="1" stop-color="#07CDEB"/>
</linearGradient>
<linearGradient id="paint1_linear_264_2234" x1="183.232" y1="101.28" x2="187.89" y2="139.701" gradientUnits="userSpaceOnUse">
<stop stop-color="#0B4078"/>
<stop offset="1" stop-color="#07CDEB"/>
</linearGradient>
<linearGradient id="paint2_linear_264_2234" x1="161.613" y1="101.296" x2="166.365" y2="139.638" gradientUnits="userSpaceOnUse">
<stop stop-color="#0B4078"/>
<stop offset="1" stop-color="#07CDEB"/>
</linearGradient>
<linearGradient id="paint3_linear_264_2234" x1="137.45" y1="101.296" x2="141.738" y2="141.437" gradientUnits="userSpaceOnUse">
<stop stop-color="#0B4078"/>
<stop offset="1" stop-color="#07CDEB"/>
</linearGradient>
<linearGradient id="paint4_linear_264_2234" x1="112.318" y1="101.296" x2="117.07" y2="139.638" gradientUnits="userSpaceOnUse">
<stop stop-color="#0B4078"/>
<stop offset="1" stop-color="#07CDEB"/>
</linearGradient>
<linearGradient id="paint5_linear_264_2234" x1="88.3458" y1="101.296" x2="92.6078" y2="139.754" gradientUnits="userSpaceOnUse">
<stop stop-color="#0B4078"/>
<stop offset="1" stop-color="#07CDEB"/>
</linearGradient>
<linearGradient id="paint6_linear_264_2234" x1="61.8234" y1="101.296" x2="66.3732" y2="139.688" gradientUnits="userSpaceOnUse">
<stop stop-color="#0B4078"/>
<stop offset="1" stop-color="#07CDEB"/>
</linearGradient>
<linearGradient id="paint7_linear_264_2234" x1="35.5483" y1="101.296" x2="39.0758" y2="139.904" gradientUnits="userSpaceOnUse">
<stop stop-color="#0B4078"/>
<stop offset="1" stop-color="#07CDEB"/>
</linearGradient>
<linearGradient id="paint8_linear_264_2234" x1="10.733" y1="101.296" x2="15.4703" y2="139.641" gradientUnits="userSpaceOnUse">
<stop stop-color="#0B4078"/>
<stop offset="1" stop-color="#07CDEB"/>
</linearGradient>
</defs>
</svg>
