<svg width="28" height="32" viewBox="0 0 28 32" fill="none" xmlns="http://www.w3.org/2000/svg">
  <path d="M27.4329 8.23677C27.3947 7.39492 27.3947 6.59133 27.3947 5.78774C27.3947 5.13722 26.8972 4.63976 26.2467 4.63976C21.4634 4.63976 17.8282 3.26218 14.8051 0.315695C14.346 -0.105232 13.6572 -0.105232 13.198 0.315695C10.175 3.26218 6.53967 4.63976 1.75642 4.63976C1.10589 4.63976 0.608434 5.13722 0.608434 5.78774C0.608434 6.59133 0.608434 7.39492 0.570168 8.23677C0.417104 16.2726 0.187507 27.2933 13.6189 31.9235L14.0016 32L14.3842 31.9235C27.7773 27.2933 27.586 16.3109 27.4329 8.23677ZM13.0832 19.3722C12.8536 19.5635 12.5857 19.6783 12.2796 19.6783H12.2413C11.9352 19.6783 11.6291 19.5253 11.4377 19.2957L7.87899 15.3543L9.60096 13.8236L12.3944 16.9232L18.5935 11.0302L20.1624 12.7139L13.0832 19.3722Z" fill="url(#paint0_linear_400_4352)" />
  <defs>
    <linearGradient id="paint0_linear_400_4352" x1="-3.54305" y1="-1.1557" x2="36.5438" y2="12.8764" gradientUnits="userSpaceOnUse">
      <stop stop-color="#082B6A" />
      <stop offset="0.2" stop-color="#1084BD" />
      <stop offset="0.428555" stop-color="#62B5DE" />
      <stop offset="0.45" stop-color="#6ABDE6" />
      <stop offset="0.48" stop-color="#6FC2EB" />
      <stop offset="0.5" stop-color="#6ABDE6" />
      <stop offset="0.52" stop-color="#62B5DE" />
      <stop offset="0.8" stop-color="#1084BD" />
      <stop offset="1" stop-color="#082B6A" />
    </linearGradient>
  </defs>
</svg>