<svg width="285" height="24" viewBox="0 0 285 24" fill="none" xmlns="http://www.w3.org/2000/svg">
<path d="M86.5 0L89.1942 8.2918H97.9127L90.8593 13.4164L93.5534 21.7082L86.5 16.5836L79.4466 21.7082L82.1407 13.4164L75.0873 8.2918H83.8058L86.5 0Z" fill="#FFCC02"/>
<path d="M114.5 0L117.194 8.2918H125.913L118.859 13.4164L121.553 21.7082L114.5 16.5836L107.447 21.7082L110.141 13.4164L103.087 8.2918H111.806L114.5 0Z" fill="#FFCC02"/>
<path d="M142.5 0L145.194 8.2918H153.913L146.859 13.4164L149.553 21.7082L142.5 16.5836L135.447 21.7082L138.141 13.4164L131.087 8.2918H139.806L142.5 0Z" fill="#FFCC02"/>
<path d="M170.5 0L173.194 8.2918H181.913L174.859 13.4164L177.553 21.7082L170.5 16.5836L163.447 21.7082L166.141 13.4164L159.087 8.2918H167.806L170.5 0Z" fill="#FFCC02"/>
<path d="M198.5 0L201.194 8.2918H209.913L202.859 13.4164L205.553 21.7082L198.5 16.5836L191.447 21.7082L194.141 13.4164L187.087 8.2918H195.806L198.5 0Z" fill="#FFCC02"/>
</svg>
