<svg width="46" height="25" viewBox="0 0 46 25" fill="none" xmlns="http://www.w3.org/2000/svg">
<rect y="2.88867" width="20" height="20" rx="10" fill="#FF5647"/>
<path d="M12.384 18.8887V15.2407L12.8 15.6247H9.296C8.38933 15.6247 7.60533 15.47 6.944 15.1607C6.29333 14.8513 5.792 14.4087 5.44 13.8327C5.09867 13.246 4.928 12.542 4.928 11.7207C4.928 10.8673 5.11467 10.142 5.488 9.54467C5.86133 8.93667 6.38933 8.478 7.072 8.16867C7.75467 7.84867 8.54933 7.68867 9.456 7.68867H13.952V18.8887H12.384ZM4.928 18.8887L7.696 14.9207H9.328L6.624 18.8887H4.928ZM12.384 14.7287V8.61667L12.8 9.08067H9.52C8.56 9.08067 7.824 9.30467 7.312 9.75267C6.8 10.19 6.544 10.8407 6.544 11.7047C6.544 12.526 6.784 13.1607 7.264 13.6087C7.75467 14.0567 8.47467 14.2807 9.424 14.2807H12.8L12.384 14.7287Z" fill="white"/>
<path d="M42 10.8887C42 16.8887 34 22.8887 34 22.8887C34 22.8887 26 16.8887 26 10.8887C26 8.76694 26.8429 6.73211 28.3431 5.23182C29.8434 3.73153 31.8783 2.88867 34 2.88867C36.1217 2.88867 38.1566 3.73153 39.6569 5.23182C41.1571 6.73211 42 8.76694 42 10.8887Z" fill="#FF5647"/>
<path d="M34 13.8887C35.6569 13.8887 37 12.5455 37 10.8887C37 9.23182 35.6569 7.88867 34 7.88867C32.3431 7.88867 31 9.23182 31 10.8887C31 12.5455 32.3431 13.8887 34 13.8887Z" fill="white"/>
</svg>
